<svg width="18" height="18" viewBox="0 0 18 18" fill="none" xmlns="http://www.w3.org/2000/svg">
<path d="M4 9.78125H0.5625C0.39 9.78125 0.25 9.64125 0.25 9.46875V8.53125C0.25 8.35875 0.39 8.21875 0.5625 8.21875H4V9.78125Z" fill="#DE2727"/>
<path d="M9.625 3.53125H0.5625C0.39 3.53125 0.25 3.39125 0.25 3.21875V2.28125C0.25 2.10875 0.39 1.96875 0.5625 1.96875H9.625V3.53125Z" fill="#DE2727"/>
<path d="M8.375 8.21875H17.4375C17.61 8.21875 17.75 8.35875 17.75 8.53125V9.46875C17.75 9.64125 17.61 9.78125 17.4375 9.78125H8.375V11.1875C8.375 11.36 8.235 11.5 8.0625 11.5H5.5625C5.39 11.5 5.25 11.36 5.25 11.1875V6.8125C5.25 6.64 5.39 6.5 5.5625 6.5H8.0625C8.235 6.5 8.375 6.64 8.375 6.8125V8.21875Z" fill="#DE2727"/>
<path d="M14 1.96875H17.4375C17.61 1.96875 17.75 2.10875 17.75 2.28125V3.21875C17.75 3.39125 17.61 3.53125 17.4375 3.53125H14V4.9375C14 5.11 13.86 5.25 13.6875 5.25H11.1875C11.015 5.25 10.875 5.11 10.875 4.9375V0.5625C10.875 0.39 11.015 0.25 11.1875 0.25H13.6875C13.86 0.25 14 0.39 14 0.5625V1.96875Z" fill="#DE2727"/>
<path d="M9.625 16.0312H0.5625C0.39 16.0312 0.25 15.8913 0.25 15.7188V14.7812C0.25 14.6088 0.39 14.4688 0.5625 14.4688H9.625V16.0312Z" fill="#DE2727"/>
<path d="M14 14.4688H17.4375C17.61 14.4688 17.75 14.6087 17.75 14.7812V15.7188C17.75 15.8912 17.61 16.0312 17.4375 16.0312H14V17.4375C14 17.61 13.86 17.75 13.6875 17.75H11.1875C11.015 17.75 10.875 17.61 10.875 17.4375V13.0625C10.875 12.89 11.015 12.75 11.1875 12.75H13.6875C13.86 12.75 14 12.89 14 13.0625V14.4688Z" fill="#DE2727"/>
</svg>
