<svg width="32" height="32" viewBox="0 0 32 32" fill="none" xmlns="http://www.w3.org/2000/svg">
<path d="M31.4239 27.5631L23.1845 19.3237C24.3352 17.4357 24.9448 15.2678 24.9466 13.0568C24.9466 6.35749 19.5215 0.932366 12.8268 0.930054C6.13209 0.930054 0.704651 6.35633 0.704651 13.0533C0.704651 19.748 6.13093 25.1708 12.8268 25.1708C15.1242 25.1708 17.2668 24.521 19.096 23.411L27.3377 31.6516L31.4239 27.562V27.5631ZM5.32734 13.0545C5.3304 11.0667 6.12134 9.16109 7.52684 7.75537C8.93235 6.34965 10.8378 5.55842 12.8256 5.55505C14.8133 5.55781 16.7188 6.34872 18.1243 7.75436C19.5297 9.16 20.3203 11.0656 20.3227 13.0533C20.3197 15.0406 19.529 16.9455 18.1239 18.3508C16.7188 19.7561 14.814 20.5471 12.8268 20.5505C10.8393 20.5468 8.93437 19.7556 7.52915 18.3501C6.12393 16.9447 5.33301 15.0396 5.32965 13.0522L5.32734 13.0545Z" fill="#C61213"/>
</svg>
