<svg width="30" height="30" viewBox="0 0 30 30" fill="none" xmlns="http://www.w3.org/2000/svg">
<g clip-path="url(#clip0_20_330)">
<path d="M29.9953 14.8098C29.9464 13.8325 29.5174 12.913 28.7999 12.2476C28.0823 11.5822 27.1331 11.2236 26.1549 11.2485C25.1766 11.2733 24.2468 11.6795 23.564 12.3804C22.8811 13.0813 22.4993 14.0214 22.5 15V21.25C22.5 20.9185 22.3683 20.6005 22.1339 20.3661C21.8995 20.1317 21.5815 20 21.25 20H8.75C8.41848 20 8.10054 20.1317 7.86612 20.3661C7.6317 20.6005 7.5 20.9185 7.5 21.25V15C7.49996 14.3125 7.31092 13.6383 6.95356 13.051C6.5962 12.4636 6.08427 11.9859 5.47371 11.6699C4.86316 11.3539 4.17749 11.2118 3.49164 11.2591C2.80579 11.3065 2.14615 11.5415 1.58484 11.9384C1.02352 12.3354 0.582125 12.879 0.308892 13.5098C0.03566 14.1407 -0.0588927 14.8345 0.035569 15.5155C0.130031 16.1965 0.409871 16.8384 0.844504 17.371C1.27914 17.9037 1.85183 18.3066 2.5 18.5358V25C2.5 25.3315 2.6317 25.6495 2.86612 25.8839C3.10054 26.1183 3.41848 26.25 3.75 26.25H5V28.75H7.5V26.25H22.5V28.75H25V26.25H26.25C26.5815 26.25 26.8995 26.1183 27.1339 25.8839C27.3683 25.6495 27.5 25.3315 27.5 25V18.5358C28.2618 18.2663 28.9161 17.7581 29.3658 17.0868C29.8154 16.4154 30.0362 15.6168 29.9953 14.8098Z" fill="#D92929"/>
<path d="M8.75 15V18.75H21.25V15C21.2514 13.8918 21.6203 12.8154 22.2989 11.9393C22.9774 11.0632 23.9274 10.4368 25 10.1583V7.5C24.9981 5.84297 24.3391 4.25434 23.1674 3.08264C21.9957 1.91094 20.407 1.25186 18.75 1.25H11.25C9.59297 1.25186 8.00434 1.91094 6.83264 3.08264C5.66094 4.25434 5.00186 5.84297 5 7.5V10.1583C6.0726 10.4368 7.02256 11.0632 7.70114 11.9393C8.37971 12.8154 8.74858 13.8918 8.75 15ZM17.5 6.25C17.7472 6.25 17.9889 6.32331 18.1945 6.46066C18.4 6.59801 18.5602 6.79324 18.6549 7.02165C18.7495 7.25005 18.7742 7.50139 18.726 7.74386C18.6778 7.98634 18.5587 8.20907 18.3839 8.38388C18.2091 8.5587 17.9863 8.67775 17.7439 8.72598C17.5014 8.77421 17.2501 8.74946 17.0216 8.65485C16.7932 8.56024 16.598 8.40002 16.4607 8.19446C16.3233 7.9889 16.25 7.74723 16.25 7.5C16.25 7.16848 16.3817 6.85054 16.6161 6.61612C16.8505 6.3817 17.1685 6.25 17.5 6.25ZM17.5 10C17.7472 10 17.9889 10.0733 18.1945 10.2107C18.4 10.348 18.5602 10.5432 18.6549 10.7716C18.7495 11.0001 18.7742 11.2514 18.726 11.4939C18.6778 11.7363 18.5587 11.9591 18.3839 12.1339C18.2091 12.3087 17.9863 12.4278 17.7439 12.476C17.5014 12.5242 17.2501 12.4995 17.0216 12.4049C16.7932 12.3102 16.598 12.15 16.4607 11.9445C16.3233 11.7389 16.25 11.4972 16.25 11.25C16.25 10.9185 16.3817 10.6005 16.6161 10.3661C16.8505 10.1317 17.1685 10 17.5 10ZM12.5 6.25C12.7472 6.25 12.9889 6.32331 13.1945 6.46066C13.4 6.59801 13.5602 6.79324 13.6549 7.02165C13.7495 7.25005 13.7742 7.50139 13.726 7.74386C13.6778 7.98634 13.5587 8.20907 13.3839 8.38388C13.2091 8.5587 12.9863 8.67775 12.7439 8.72598C12.5014 8.77421 12.2501 8.74946 12.0216 8.65485C11.7932 8.56024 11.598 8.40002 11.4607 8.19446C11.3233 7.9889 11.25 7.74723 11.25 7.5C11.25 7.16848 11.3817 6.85054 11.6161 6.61612C11.8505 6.3817 12.1685 6.25 12.5 6.25ZM12.5 10C12.7472 10 12.9889 10.0733 13.1945 10.2107C13.4 10.348 13.5602 10.5432 13.6549 10.7716C13.7495 11.0001 13.7742 11.2514 13.726 11.4939C13.6778 11.7363 13.5587 11.9591 13.3839 12.1339C13.2091 12.3087 12.9863 12.4278 12.7439 12.476C12.5014 12.5242 12.2501 12.4995 12.0216 12.4049C11.7932 12.3102 11.598 12.15 11.4607 11.9445C11.3233 11.7389 11.25 11.4972 11.25 11.25C11.25 10.9185 11.3817 10.6005 11.6161 10.3661C11.8505 10.1317 12.1685 10 12.5 10Z" fill="#D92929"/>
</g>
<defs>
<clipPath id="clip0_20_330">
<rect width="30" height="30" fill="white"/>
</clipPath>
</defs>
</svg>
