<svg width="25" height="25" viewBox="0 0 25 25" fill="none" xmlns="http://www.w3.org/2000/svg">
<g clip-path="url(#clip0_20_308)">
<path d="M7.35293 8.45586H0V1.47061C0 0.658398 0.658398 0 1.47061 0H7.35298V2.20586C7.35298 2.61196 7.68218 2.94116 8.08828 2.94116C8.49438 2.94116 8.82358 2.61196 8.82358 2.20586V0H23.5294C24.3416 0 25 0.658398 25 1.47061V8.45591H21.3235C20.9174 8.45591 20.5882 8.78511 20.5882 9.19121C20.5882 9.59731 20.9174 9.92651 21.3235 9.92651H25V23.5294C25 24.3416 24.3416 25 23.5294 25H1.47061C0.658398 25 0 24.3416 0 23.5294V17.6471H5.60278L8.70269 20.4025C9.0062 20.6723 9.47095 20.645 9.74077 20.3415C10.0105 20.0379 9.98325 19.5732 9.67974 19.3034L6.3709 16.3622C6.23628 16.2426 6.0625 16.1765 5.88237 16.1765H0V9.92647H13.2353V16.1765H11.7647C11.3586 16.1765 11.0294 16.5057 11.0294 16.9118C11.0294 17.3179 11.3586 17.6471 11.7647 17.6471H13.9706C14.3767 17.6471 14.7059 17.3179 14.7059 16.9118V9.92647H16.1765C16.5826 9.92647 16.9118 9.59727 16.9118 9.19116C16.9118 8.78506 16.5826 8.45586 16.1765 8.45586H8.82353V6.98525C8.82353 6.57915 8.49434 6.24995 8.08823 6.24995C7.68213 6.24995 7.35293 6.57915 7.35293 6.98525V8.45586Z" fill="#D92929"/>
</g>
<defs>
<clipPath id="clip0_20_308">
<rect width="25" height="25" fill="white"/>
</clipPath>
</defs>
</svg>
