<svg width="26" height="33" viewBox="0 0 26 33" fill="none" xmlns="http://www.w3.org/2000/svg">
<path d="M24.3806 14.9324C23.6791 13.3536 22.6594 11.9365 21.3852 10.7699L20.3337 9.80513C20.298 9.77327 20.255 9.75067 20.2085 9.73929C20.1621 9.72792 20.1135 9.72813 20.0671 9.7399C20.0208 9.75167 19.978 9.77465 19.9426 9.80681C19.9071 9.83898 19.8801 9.87934 19.864 9.92437L19.3942 11.2721C19.1016 12.1176 18.5632 12.9812 17.8008 13.8303C17.7502 13.8845 17.6924 13.899 17.6526 13.9026C17.6129 13.9062 17.5515 13.899 17.4973 13.8484C17.4467 13.805 17.4214 13.74 17.425 13.675C17.5587 11.4998 16.9083 9.04634 15.4847 6.37613C14.3067 4.15757 12.6699 2.42681 10.6248 1.21998L9.13252 0.341949C8.9374 0.226324 8.68809 0.378082 8.69893 0.605719L8.77842 2.34009C8.83262 3.52525 8.69531 4.5731 8.37012 5.4439C7.97266 6.50982 7.40176 7.49986 6.67188 8.38873C6.16393 9.00646 5.58822 9.56521 4.95557 10.0545C3.43187 11.2258 2.1929 12.7266 1.33145 14.4446C0.472113 16.1776 0.0244859 18.0855 0.0234375 20.0199C0.0234375 21.7253 0.359473 23.3766 1.02432 24.9339C1.66627 26.4333 2.59269 27.7941 3.75234 28.9411C4.92305 30.0973 6.28164 31.0079 7.79561 31.6402C9.36377 32.2978 11.0259 32.6302 12.7422 32.6302C14.4585 32.6302 16.1206 32.2978 17.6888 31.6438C19.199 31.0152 20.5723 30.0984 21.732 28.9447C22.9027 27.7884 23.8205 26.4371 24.4601 24.9376C25.1239 23.3845 25.4645 21.7125 25.4609 20.0235C25.4609 18.2602 25.0996 16.5475 24.3806 14.9324Z" fill="#EE2828"/>
</svg>
